# xmcd
#
# Track frame offsets:
# 225
# 19467
# 34124
# 49803
# 63641
# 82619
# 95049
# 107139
# 123856
# 141139
# 152116
# 169216
# 187751
# 204454
#
# Disc length: 2904 seconds
#
#
# Revision: 0
# Processed by: cddbd v1.5.1PL0 Copyright (c) Steve Scherf et al.
# Submitted via: FreeRIP 2.91 
#
DISCID=bb0b550e
DTITLE=Jonny Hill Gänsehaut Balladen CD 2 - Jonny Hill Gänsehaut Balladen CD 2
DYEAR=1900
DGENRE=Country
TTITLE0=Kinder, alte Hunde und junger herber Wein
TTITLE1=Wär ich jetzt nur auf einer Insel
TTITLE2=Wieviel braucht man zum Glücklichsein?
TTITLE3=Einmal noch nach Haus
TTITLE4=Was kommt dann
TTITLE5=Erinnerung an Tom Dooley
TTITLE6=Wenn der Morgen kommt in Hamburg Altona
TTITLE7=Meine Liebe lebt
TTITLE8=Die Zeit wischt die Schminke aus jedem Gesicht
TTITLE9=Die Frau in meinem Bett
TTITLE10=Ihre Hände können sprechen
TTITLE11=Der Haus-Song
TTITLE12=Was zum teufel ist schon Liebe
TTITLE13=Ich werde gehn
EXTD=
EXTT0=
EXTT1=
EXTT2=
EXTT3=
EXTT4=
EXTT5=
EXTT6=
EXTT7=
EXTT8=
EXTT9=
EXTT10=
EXTT11=
EXTT12=
EXTT13=
PLAYORDER=
